<?xml version="1.0" encoding="UTF-8" standalone="no"?>
<svg width="72px" height="33px" viewBox="0 0 72 33" version="1.1" xmlns="http://www.w3.org/2000/svg" xmlns:xlink="http://www.w3.org/1999/xlink" xmlns:sketch="http://www.bohemiancoding.com/sketch/ns">
    <!-- Generator: Sketch 3.4.2 (15855) - http://www.bohemiancoding.com/sketch -->
    <title>gsearchv</title>
    <desc>Created with Sketch.</desc>
    <defs></defs>
    <g id="Page-1" stroke="none" stroke-width="1" fill="none" fill-rule="evenodd" sketch:type="MSPage">
        <g id="first-search" sketch:type="MSArtboardGroup" transform="translate(-683.000000, -199.000000)">
            <g id="gsearchv" sketch:type="MSLayerGroup" transform="translate(682.000000, 183.000000)">
                <path d="M22.4,34.88 C22.4,37.8666816 22.266668,39.9333276 22,41.08 C20.7466604,46.3600264 17.186696,49 11.32,49 C8.3066516,49 5.4933464,48.3600064 2.88,47.08 L3.92,43.8 C6.2133448,45.000006 8.3866564,45.6 10.44,45.6 C13.7466832,45.6 15.8399956,44.3066796 16.72,41.72 C17.0133348,40.8666624 17.16,39.4933428 17.16,37.6 L17.16,36.04 C15.2399904,38.3333448 13.0533456,39.48 10.6,39.48 C7.799986,39.48 5.5733416,38.4266772 3.92,36.32 C2.4266592,34.3999904 1.68,31.9866812 1.68,29.08 C1.68,26.0666516 2.5733244,23.5533434 4.36,21.54 C6.1466756,19.5266566 8.37332,18.52 11.04,18.52 C13.6800132,18.52 15.7199928,19.586656 17.16,21.72 L17.16,19 L22.4,19 L22.4,34.88 Z M17.16,28.76 C17.16,26.5466556 16.7066712,24.8133396 15.8,23.56 C14.8933288,22.3066604 13.640008,21.68 12.04,21.68 C10.5466592,21.68 9.3800042,22.3066604 8.54,23.56 C7.6999958,24.8133396 7.28,26.5333224 7.28,28.72 C7.28,31.0133448 7.7266622,32.859993 8.62,34.26 C9.5133378,35.660007 10.693326,36.36 12.16,36.36 C13.6533408,36.36 14.8599954,35.660007 15.78,34.26 C16.7000046,32.859993 17.16,31.026678 17.16,28.76 L17.16,28.76 Z M72.9199996,19.44 L64.3199996,39 L60.6799996,39 L52.6799996,19.6 L57.9199996,18.64 L63.1199996,32.64 L68.6399996,18.64 L72.9199996,19.44 Z" id="g--v-copy" fill="#4A4A4A" sketch:type="MSShapeGroup"></path>
                <path d="M46.0123586,35.180848 C44.7065008,39.7978575 40.4615321,43.180848 35.4264236,43.180848 C29.3512913,43.180848 24.4264236,38.2559802 24.4264236,32.180848 C24.4264236,26.1057157 29.3512913,21.180848 35.4264236,21.180848 C40.4615321,21.180848 44.7065008,24.5638384 46.0123586,29.180848 L55.4169459,29.180848 C57.0790345,29.180848 58.4264236,30.5273651 58.4264236,32.180848 C58.4264236,33.8377022 57.0897925,35.180848 55.4169459,35.180848 L46.0123586,35.180848 Z M35.4264236,39.180848 C39.2924168,39.180848 42.4264236,36.0468412 42.4264236,32.180848 C42.4264236,28.3148547 39.2924168,25.180848 35.4264236,25.180848 C31.5604303,25.180848 28.4264236,28.3148547 28.4264236,32.180848 C28.4264236,36.0468412 31.5604303,39.180848 35.4264236,39.180848 Z" id="search-copy" fill="#E65C63" sketch:type="MSShapeGroup" transform="translate(41.426424, 32.180848) rotate(-305.000000) translate(-41.426424, -32.180848) "></path>
            </g>
        </g>
    </g>
</svg>