<?xml version="1.0" encoding="UTF-8" standalone="no"?>
<svg width="19px" height="23px" viewBox="0 0 19 23" version="1.1" xmlns="http://www.w3.org/2000/svg" xmlns:xlink="http://www.w3.org/1999/xlink" xmlns:sketch="http://www.bohemiancoding.com/sketch/ns">
    <!-- Generator: Sketch 3.4.2 (15855) - http://www.bohemiancoding.com/sketch -->
    <title>icon_search</title>
    <desc>Created with Sketch.</desc>
    <defs></defs>
    <g id="Page-1" stroke="none" stroke-width="1" fill="none" fill-rule="evenodd" sketch:type="MSPage">
        <g id="search-result" sketch:type="MSArtboardGroup" transform="translate(-328.000000, -63.000000)" fill="#E65C63">
            <path d="M342.751831,76.9849189 C341.869001,80.4430229 338.733108,83 335,83 C330.581722,83 327,79.418278 327,75 C327,70.581722 330.581722,67 335,67 C338.733086,67 341.868964,69.5569468 342.751815,73.0150195 C342.832944,73.005105 342.915639,73 342.999615,73 L349.000385,73 C350.104742,73 351,73.8877296 351,75 C351,76.1045695 350.112567,77 349.000385,77 L342.999615,77 C342.915713,77 342.833018,76.994876 342.751831,76.9849189 Z M335,80.5 C338.037566,80.5 340.5,78.0375661 340.5,75 C340.5,71.9624339 338.037566,69.5 335,69.5 C331.962434,69.5 329.5,71.9624339 329.5,75 C329.5,78.0375661 331.962434,80.5 335,80.5 Z" id="icon_search" sketch:type="MSShapeGroup" transform="translate(339.000000, 75.000000) rotate(-305.000000) translate(-339.000000, -75.000000) "></path>
        </g>
    </g>
</svg>